<?xml version="1.0" encoding="utf-8"?>
<!-- Generator: Adobe Illustrator 16.0.0, SVG Export Plug-In . SVG Version: 6.00 Build 0)  -->
<!DOCTYPE svg PUBLIC "-//W3C//DTD SVG 1.1//EN" "http://www.w3.org/Graphics/SVG/1.1/DTD/svg11.dtd">
<svg version="1.1" id="Calque_1" xmlns="http://www.w3.org/2000/svg" xmlns:xlink="http://www.w3.org/1999/xlink" x="0px" y="0px"
	 width="33.69px" height="33.69px" viewBox="0 0 33.69 33.69" enable-background="new 0 0 33.69 33.69" xml:space="preserve">
<circle fill="#6FB1CF" cx="16.845" cy="16.844" r="16.845"/>
<g>
	<g id="communication_-_bubble_chat_talk_conversation_6_">
		<g>
			<path fill="#FFFFFF" d="M16.845,6.367c-5.765,0-10.438,4.09-10.438,9.133c0,2.883,1.531,5.451,3.913,7.121v4.62l5.345-2.67
				c0.388,0.036,0.781,0.062,1.18,0.062c5.764,0,10.438-4.089,10.438-9.133C27.283,10.457,22.608,6.367,16.845,6.367z
				 M16.845,23.328c-0.599,0-1.18-0.052-1.747-0.146l0.443,0.148l-3.915,1.955v-3.262l0.484,0.163
				c-2.635-1.376-4.398-3.851-4.398-6.687c0-4.324,4.088-7.828,9.133-7.828c5.043,0,9.134,3.504,9.134,7.828
				C25.979,19.822,21.888,23.328,16.845,23.328z"/>
		</g>
	</g>
</g>
</svg>
